<svg width="8" height="10" viewBox="0 0 8 10" fill="none" xmlns="http://www.w3.org/2000/svg">
<path d="M7.77718 3.74947H7.11052V2.91775C7.111 2.14538 6.78375 1.40438 6.2006 0.857361C5.61745 0.310345 4.82603 0.00200257 4.00002 0C3.17401 0.00178014 2.3825 0.309909 1.79918 0.856767C1.21586 1.40363 0.888385 2.14454 0.888625 2.91691V3.75031H0.221961C0.163022 3.75054 0 3.75 0 3.75C0 3.75 3.92041e-05 3.90355 3.96833e-05 3.95867V9.16744C3.96833e-05 9.62614 0.39896 10 0.889523 10H7.11052C7.60108 10 8 9.62614 8 9.1666V3.95783C7.99976 3.90271 8 3.75031 8 3.75031C8 3.75031 7.83612 3.75031 7.77718 3.75031V3.74947ZM4.66489 8.103C4.66815 8.13204 4.66487 8.16139 4.65527 8.18918C4.64567 8.21696 4.62995 8.24256 4.60913 8.26432C4.58831 8.28608 4.56285 8.30352 4.53439 8.31553C4.50593 8.32754 4.47509 8.33384 4.44386 8.33403H3.55528C3.52397 8.3341 3.493 8.32798 3.4644 8.31606C3.4358 8.30414 3.41022 8.28669 3.38935 8.26487C3.36847 8.24305 3.35277 8.21735 3.34327 8.18945C3.33378 8.16155 3.33071 8.13209 3.33425 8.103L3.47442 6.92094C3.3238 6.81695 3.21203 6.67124 3.15497 6.5045C3.09791 6.33776 3.09846 6.15845 3.15653 5.99202C3.2146 5.82558 3.32725 5.68047 3.4785 5.57728C3.62974 5.47409 3.8119 5.41805 3.99912 5.41712C4.18642 5.41788 4.36871 5.47379 4.5201 5.57692C4.67149 5.68004 4.78428 5.82515 4.84246 5.99162C4.90065 6.1581 4.90127 6.33748 4.84423 6.5043C4.78719 6.67113 4.6754 6.81691 4.52473 6.92094L4.66489 8.103ZM5.77719 3.75115H2.22195V2.91775C2.22195 1.99866 3.01979 1.25095 4.00002 1.25095C4.97935 1.25095 5.77719 1.99866 5.77719 2.91775V3.75115Z" fill="#E7E7E7"/>
</svg>
