<svg width="54" height="54" viewBox="0 0 54 54" fill="none" xmlns="http://www.w3.org/2000/svg">
<path fill-rule="evenodd" clip-rule="evenodd" d="M27 3.5C14.0213 3.5 3.5 14.0213 3.5 27C3.5 39.9787 14.0213 50.5 27 50.5C39.9787 50.5 50.5 39.9787 50.5 27C50.5 14.0213 39.9787 3.5 27 3.5ZM0.5 27C0.5 12.3645 12.3645 0.5 27 0.5C41.6355 0.5 53.5 12.3645 53.5 27C53.5 41.6355 41.6355 53.5 27 53.5C12.3645 53.5 0.5 41.6355 0.5 27ZM27 11.6111C27.8284 11.6111 28.5 12.2827 28.5 13.1111V32.5556C28.5 33.384 27.8284 34.0556 27 34.0556C26.1716 34.0556 25.5 33.384 25.5 32.5556V13.1111C25.5 12.2827 26.1716 11.6111 27 11.6111ZM27 39.3611C27.8284 39.3611 28.5 40.0327 28.5 40.8611V40.8889C28.5 41.7173 27.8284 42.3889 27 42.3889C26.1716 42.3889 25.5 41.7173 25.5 40.8889V40.8611C25.5 40.0327 26.1716 39.3611 27 39.3611Z" fill="#717495"/>
</svg>
