<svg width="54" height="54" viewBox="0 0 54 54" fill="none" xmlns="http://www.w3.org/2000/svg">
<path fill-rule="evenodd" clip-rule="evenodd" d="M27 3.5C14.0213 3.5 3.5 14.0213 3.5 27C3.5 39.9787 14.0213 50.5 27 50.5C39.9787 50.5 50.5 39.9787 50.5 27C50.5 14.0213 39.9787 3.5 27 3.5ZM0.5 27C0.5 12.3645 12.3645 0.5 27 0.5C41.6355 0.5 53.5 12.3645 53.5 27C53.5 41.6355 41.6355 53.5 27 53.5C12.3645 53.5 0.5 41.6355 0.5 27ZM41.9495 17.606C42.5353 18.1918 42.5353 19.1415 41.9495 19.7273L22.505 39.1718C21.9193 39.7576 20.9695 39.7576 20.3837 39.1718L12.0503 30.8384C11.4645 30.2527 11.4645 29.3029 12.0503 28.7171C12.6361 28.1313 13.5858 28.1313 14.1716 28.7171L21.4444 35.9898L39.8282 17.606C40.414 17.0202 41.3638 17.0202 41.9495 17.606Z" fill="#717495"/>
</svg>
