<svg width="1440" height="1062" viewBox="0 0 1440 1062" fill="none" xmlns="http://www.w3.org/2000/svg">
<mask id="mask0" mask-type="alpha" maskUnits="userSpaceOnUse" x="0" y="0" width="1440" height="1062">
<rect width="1440" height="1061.55" transform="matrix(1 0 0 -1 0 1061.55)" fill="#C4C4C4"/>
</mask>
<g mask="url(#mask0)">
<path d="M41 -173.594L84.5 -98.6614M495.5 900.441L392.354 623.19M-4.5 533.271L51.5 574.824M264.5 741.833L223.5 702.454M264.5 741.833L687.5 1046.76M264.5 741.833L155.5 1029.07L-7 1601.06M51.5 574.824L65.5 996.15M51.5 574.824L223.5 702.454M50.6556 1398.12L65.5 996.15M-4.5 912.929L65.5 996.15M223.5 702.454L289.208 345.939M289.208 345.939L228.807 183.585M289.208 345.939L358.901 533.271L392.354 623.19M-4.5 390.899L228.807 183.585M228.807 183.585L185.597 67.4393M84.5 -98.6614L204 -170.472M84.5 -98.6614L185.597 67.4393M185.597 67.4393L406.548 -45.5841M652 -176.092L479.5 -84.3728M406.548 -45.5841L304 -170.472M406.548 -45.5841L415.5 -167.35M406.548 -45.5841L479.5 -84.3728M392.354 623.19L639.5 327.633M843.5 83.6747L639.5 327.633M787 -167.35L907.5 238.536M1021.5 -167.35L946.752 111.15M687.5 1046.76L639.5 327.633M687.5 1046.76L804.868 623.19M687.5 1046.76L855.5 1171.42L907.5 1029M804.868 623.19L946.752 111.15M804.868 623.19L1065.5 596.265M804.868 623.19L907.5 1029M1433.5 558.248L1335.5 568.372M1335.5 568.372L1433.5 425.867M1335.5 568.372L1175.5 584.901M1433.5 360.925L1259.5 271.637M946.752 111.15L1343 -167.35M946.752 111.15L1021.5 149.507M1021.5 149.507L1175.5 584.901M1021.5 149.507L1259.5 271.637M1175.5 584.901L1259.5 271.637M1175.5 584.901L1065.5 596.265M1065.5 596.265L1015.54 733.091M907.5 1029L1015.54 733.091M1015.54 733.091L1175.5 963.202M1175.5 963.202L1433.5 660.656L1463.5 1377.51L1397.52 1282.6M1175.5 963.202L1397.52 1282.6M1397.52 1282.6L1331.01 1413.73M1227.5 1622.29L1331.01 1413.73M1331.01 1413.73L1439.5 1526.13M479.5 -84.3728L554.5 93.0413" stroke="url(#paint0_linear)" stroke-opacity="0.5"/>
</g>
<defs>
<linearGradient id="paint0_linear" x1="686" y1="102.408" x2="692.239" y2="1006.58" gradientUnits="userSpaceOnUse">
<stop stop-color="#8689AF" stop-opacity="0"/>
<stop offset="0.501385" stop-color="#8689AF"/>
<stop offset="1" stop-color="#8689AF" stop-opacity="0"/>
</linearGradient>
</defs>
</svg>
