<svg width="1381" height="461" viewBox="0 0 1381 461" fill="none" xmlns="http://www.w3.org/2000/svg">
<path d="M49 -248L92.5 -188M503.5 612L400.354 390M3.5 318L59.5 351.273M272.5 485L231.5 453.469M272.5 485L695.5 729.159M272.5 485L163.5 715L1 1173M59.5 351.273L73.5 688.636M59.5 351.273L231.5 453.469M58.6556 1010.5L73.5 688.636M3.5 622L73.5 688.636M231.5 453.469L297.208 168M297.208 168L236.807 38M297.208 168L366.901 318L400.354 390M3.5 204L236.807 38M236.807 38L193.597 -55M92.5 -188L212 -245.5M92.5 -188L193.597 -55M193.597 -55L414.548 -145.5M660 -250L487.5 -176.559M414.548 -145.5L312 -245.5M414.548 -145.5L423.5 -243M414.548 -145.5L487.5 -176.559M400.354 390L647.5 153.342M851.5 -42L647.5 153.342M795 -243L915.5 82M1029.5 -243L954.752 -20M695.5 729.159L647.5 153.342M695.5 729.159L812.868 390M695.5 729.159L863.5 828.978L915.5 714.94M812.868 390L954.752 -20M812.868 390L1073.5 368.441M812.868 390L915.5 714.94M1441.5 338L1343.5 346.107M1343.5 346.107L1441.5 232M1343.5 346.107L1183.5 359.342M1441.5 180L1267.5 108.505M954.752 -20L1351 -243M954.752 -20L1029.5 10.7133M1029.5 10.7133L1183.5 359.342M1029.5 10.7133L1267.5 108.505M1183.5 359.342L1267.5 108.505M1183.5 359.342L1073.5 368.441M1073.5 368.441L1023.54 478M915.5 714.94L1023.54 478M1023.54 478L1183.5 662.254M1183.5 662.254L1441.5 420L1471.5 994L1405.52 918M1183.5 662.254L1405.52 918M1405.52 918L1339.01 1023M1235.5 1190L1339.01 1023M1339.01 1023L1447.5 1113M487.5 -176.559L562.5 -34.5" stroke="#717495" stroke-opacity="0.1" stroke-width="2"/>
</svg>
