<svg width="544" height="155" viewBox="0 0 544 155" fill="none" xmlns="http://www.w3.org/2000/svg">
<path fill-rule="evenodd" clip-rule="evenodd" d="M136.246 76.8781C136.402 77.1472 136.64 77.3429 136.914 77.449C137.187 77.5545 137.496 77.5704 137.793 77.4762L144.205 75.4379L152.407 90.4626L116.689 76.6537L132.87 71.0529L136.246 76.8781ZM156 94.1333C156.239 93.9867 156.434 93.7634 156.542 93.4815L166.443 67.8723C166.557 67.5945 166.578 67.2765 166.48 66.9675C166.346 66.5464 166.022 66.2389 165.633 66.1101L123.277 49.7349C122.905 49.5737 122.464 49.5848 122.086 49.8041C121.811 49.9642 121.614 50.208 121.51 50.4846L111.619 76.0681C111.496 76.3594 111.475 76.6959 111.587 77.0189C111.684 77.2988 111.865 77.5251 112.092 77.6797C112.166 77.7296 112.245 77.7729 112.33 77.8082C112.34 77.8126 112.351 77.817 112.362 77.8212L112.366 77.8228L154.735 94.203C154.765 94.2172 154.795 94.2302 154.826 94.2421C155.177 94.3778 155.584 94.3635 155.939 94.1685C155.96 94.1572 155.98 94.1455 156 94.1333ZM155.099 89.8665L146.776 74.6205L162.986 69.4679L155.099 89.8665ZM131.517 68.7184L115.105 74.4001L122.99 54.0051L131.517 68.7184ZM125.785 53.5449L161.226 67.2468L138.004 74.6278L125.785 53.5449Z" fill="#404256" fill-opacity="0.1"/>
<path fill-rule="evenodd" clip-rule="evenodd" d="M417.575 75.0174C417.871 75.1121 418.179 75.0973 418.454 74.9917C418.727 74.8866 418.967 74.6908 419.123 74.422L422.507 68.6064L438.673 74.234L402.931 87.9817L411.162 72.9671L417.575 75.0174ZM443.8 74.5421C443.879 74.2729 443.873 73.9767 443.764 73.6949L433.907 48.0689C433.806 47.7862 433.608 47.5364 433.327 47.3733C432.945 47.151 432.499 47.1408 432.124 47.3067L389.74 63.6092C389.356 63.7396 389.037 64.0441 388.904 64.4605C388.807 64.7639 388.825 65.0765 388.934 65.3511L398.781 90.9515C398.885 91.2505 399.096 91.5135 399.396 91.6778C399.655 91.8198 399.94 91.866 400.212 91.8286C400.302 91.8163 400.391 91.7945 400.48 91.7627C400.49 91.7593 400.499 91.7558 400.508 91.7521L400.512 91.7507L442.909 75.4429C442.941 75.4334 442.972 75.4227 443.003 75.4109C443.354 75.2758 443.646 74.9916 443.779 74.6087C443.786 74.5865 443.794 74.5643 443.8 74.5421ZM440.268 71.9846L423.863 66.2741L432.416 51.5725L440.268 71.9846ZM408.592 72.1455L400.244 87.3754L392.394 66.9669L408.592 72.1455ZM394.157 64.7488L429.621 51.1077L417.367 72.1697L394.157 64.7488Z" fill="#404256" fill-opacity="0.1"/>
<path fill-rule="evenodd" clip-rule="evenodd" d="M87.5164 23.3536C87.5518 23.5856 87.6652 23.7888 87.8287 23.9389C87.9914 24.0884 88.2043 24.1847 88.4385 24.2002L93.5038 24.535L95.1263 37.3528L73.8354 17.8068L86.7497 18.3308L87.5164 23.3536ZM96.4173 40.9395C96.7039 40.9536 96.9943 40.8447 97.203 40.6166L111.232 25.335C111.408 25.144 111.495 24.903 111.495 24.6625C111.498 24.3471 111.352 24.0613 111.121 23.8755L85.8985 0.720255C85.6809 0.495141 85.3613 0.375296 85.028 0.42624C84.7714 0.465831 84.5525 0.599478 84.4012 0.78679L70.4774 15.9536C70.2838 16.1274 70.1577 16.3763 70.1464 16.6572C70.134 16.9634 70.2605 17.2425 70.4697 17.4345C70.4859 17.4494 70.5027 17.4638 70.5199 17.4776L95.7224 40.6146C95.7422 40.6363 95.763 40.6572 95.7846 40.677C95.9542 40.8327 96.1772 40.9294 96.4173 40.9395ZM97.1831 37.6813L95.5361 24.6694L108.351 25.5165L97.1831 37.6813ZM86.4424 16.3175L73.3452 15.7867L84.5058 3.62984L86.4424 16.3175ZM86.5969 4.07606L107.723 23.4705L89.3716 22.2568L86.5969 4.07606Z" fill="#404256" fill-opacity="0.1"/>
<path fill-rule="evenodd" clip-rule="evenodd" d="M191.428 107.591C191.424 107.798 191.492 107.99 191.611 108.145C191.73 108.299 191.9 108.414 192.101 108.462L196.442 109.508L195.938 120.857L180.403 100.748L191.512 103.126L191.428 107.591ZM196.238 124.036C196.542 124.231 196.947 124.224 197.249 123.991L211.68 112.841C211.893 112.677 212.009 112.434 212.021 112.185C212.032 111.954 211.951 111.732 211.805 111.564L193.394 87.7356C193.239 87.5112 192.982 87.3621 192.688 87.3566C192.458 87.3527 192.247 87.4369 192.088 87.5782L177.775 98.6366C177.577 98.7579 177.427 98.957 177.375 99.2021C177.318 99.4656 177.386 99.7262 177.539 99.9237C177.556 99.9455 177.574 99.9666 177.593 99.9868L195.987 123.795C195.996 123.808 196.004 123.82 196.014 123.831C196.076 123.912 196.152 123.981 196.238 124.036ZM197.672 121.443L198.183 109.927L209.157 112.569L197.672 121.443ZM191.546 101.336L180.277 98.9248L191.758 90.0547L191.546 101.336ZM193.503 90.7519L208.918 110.703L193.199 106.917L193.503 90.7519Z" fill="#404256" fill-opacity="0.1"/>
<path fill-rule="evenodd" clip-rule="evenodd" d="M184.223 40.4232C184.436 40.5223 184.668 40.5405 184.884 40.4875C185.098 40.4348 185.296 40.311 185.439 40.1246L188.524 36.0935L200.094 41.845L172.026 48.7386L179.617 38.2783L184.223 40.4232ZM203.795 42.7575C203.965 42.5267 204.036 42.2247 203.961 41.9246L199.013 21.7786C198.952 21.5267 198.799 21.3208 198.599 21.1868C198.338 21.0102 198.02 20.9728 197.737 21.0626L164.486 29.2292C164.178 29.2856 163.901 29.4852 163.759 29.7909C163.649 30.0264 163.639 30.2827 163.711 30.5124L168.622 50.5071C168.66 50.7647 168.797 51.0075 169.024 51.1726C169.272 51.3526 169.575 51.4018 169.851 51.3341C169.872 51.3289 169.893 51.3229 169.914 51.3162L203.139 43.1561C203.168 43.1516 203.197 43.1458 203.226 43.1388C203.449 43.0839 203.653 42.9518 203.795 42.7575ZM201.507 40.3148L189.762 34.4761L197.568 24.2776L201.507 40.3148ZM177.771 37.4186L170.072 48.0273L166.136 32.0007L177.771 37.4186ZM167.666 30.5071L195.517 23.6669L184.338 38.271L167.666 30.5071Z" fill="#404256" fill-opacity="0.1"/>
<path fill-rule="evenodd" clip-rule="evenodd" d="M69.984 79.6014C70.1593 79.7101 70.3599 79.7503 70.5536 79.7266C70.7464 79.703 70.9323 79.6157 71.0763 79.4679L74.1911 76.2721L83.688 82.5028L58.4673 85.5835L66.1882 77.2475L69.984 79.6014ZM86.8513 83.6535C87.005 83.4729 87.0855 83.231 87.054 82.9772L84.8428 64.875C84.8368 64.826 84.8269 64.7785 84.8135 64.7327C84.7724 64.5922 84.6957 64.4601 84.5833 64.3506C84.3689 64.1414 84.0752 64.0638 83.802 64.1166L53.9298 67.7655C53.654 67.7817 53.3902 67.9271 53.2335 68.1799C53.1183 68.3664 53.0809 68.579 53.1125 68.7798L55.3129 86.7935C55.3241 87.0144 55.4183 87.2313 55.5935 87.3936C55.7912 87.5767 56.05 87.6513 56.2978 87.6211C56.3149 87.619 56.332 87.6164 56.349 87.6133L86.2141 83.9653C86.2381 83.9643 86.262 83.9624 86.2858 83.9595C86.5005 83.9332 86.705 83.8278 86.8513 83.6535ZM85.0798 81.3139L75.4408 74.9899L83.3199 66.9059L85.0798 81.3139ZM64.6665 76.3039L56.8354 84.7597L55.0761 70.3567L64.6665 76.3039ZM56.5696 69.2141L81.5942 66.1573L70.3094 77.7348L56.5696 69.2141Z" fill="#404256" fill-opacity="0.1"/>
<path fill-rule="evenodd" clip-rule="evenodd" d="M113.705 139.199C113.939 139.22 114.164 139.158 114.348 139.035C114.532 138.913 114.677 138.729 114.747 138.505L116.28 133.666L129.115 135.146L105.057 151.163L108.645 138.746L113.705 139.199ZM132.906 134.747C132.988 134.472 132.952 134.164 132.78 133.907L121.283 116.639C121.139 116.423 120.926 116.281 120.693 116.223C120.387 116.146 120.075 116.219 119.839 116.399L91.3389 135.375C91.0684 135.533 90.8758 135.814 90.8458 136.15C90.8231 136.409 90.9007 136.653 91.0466 136.845L102.457 153.983C102.58 154.212 102.791 154.394 103.061 154.472C103.356 154.557 103.657 154.501 103.893 154.343C103.912 154.331 103.93 154.318 103.947 154.305L132.425 135.344C132.451 135.33 132.476 135.315 132.5 135.299C132.692 135.171 132.839 134.978 132.906 134.747ZM129.924 133.226L116.895 131.724L120.773 119.481L129.924 133.226ZM106.616 138.565L102.978 151.158L93.8326 137.421L106.616 138.565ZM94.7644 135.496L118.636 119.603L113.082 137.136L94.7644 135.496Z" fill="#404256" fill-opacity="0.1"/>
<path fill-rule="evenodd" clip-rule="evenodd" d="M24.8657 39.9518C25.0752 40.0576 25.3065 40.0831 25.5236 40.037C25.7398 39.9912 25.9418 39.8737 26.0903 39.6919L29.302 35.7607L40.6829 41.8765L12.4101 47.8759L20.33 37.6618L24.8657 39.9518ZM44.3533 42.906C44.5309 42.6808 44.6108 42.3811 44.5461 42.0788L40.2399 21.7859C40.1861 21.5322 40.0403 21.3215 39.8448 21.1813C39.5893 20.9965 39.2722 20.949 38.9866 21.0297L5.49306 28.1371C5.18346 28.1837 4.90045 28.3744 4.74854 28.6754C4.63189 28.9074 4.61371 29.1632 4.67853 29.3951L8.95232 49.5356C8.98152 49.7942 9.11114 50.0412 9.33324 50.2135C9.57546 50.4012 9.87618 50.4601 10.154 50.4011C10.1755 50.3965 10.1969 50.3913 10.2182 50.3853L43.6854 43.2835C43.7146 43.28 43.7436 43.2752 43.7723 43.2691C43.9976 43.2213 44.2058 43.0957 44.3533 42.906ZM42.1439 40.3919L30.5905 34.1835L38.716 24.2378L42.1439 40.3919ZM18.5119 36.7439L10.4803 47.103L7.05472 30.9596L18.5119 36.7439ZM8.63149 29.5153L36.6851 23.5623L25.0488 37.8043L8.63149 29.5153Z" fill="#404256" fill-opacity="0.1"/>
<path fill-rule="evenodd" clip-rule="evenodd" d="M365.419 35.0235C365.529 35.2304 365.704 35.3842 365.908 35.4712C366.111 35.5578 366.344 35.5777 366.57 35.5142L371.457 34.1412L377.26 45.6848L350.671 34.3549L363.021 30.5436L365.419 35.0235ZM379.673 48.6359C379.948 48.5536 380.185 48.3542 380.306 48.0696L388.438 28.9852C388.54 28.7466 388.542 28.4904 388.462 28.2633C388.359 27.9652 388.127 27.7443 387.847 27.6463L356.348 14.2243C356.068 14.0846 355.726 14.0781 355.429 14.2373C355.2 14.3601 355.039 14.5591 354.958 14.7861L346.887 33.7272C346.763 33.9556 346.727 34.2323 346.81 34.5009C346.9 34.7937 347.113 35.0146 347.374 35.1259C347.394 35.1346 347.415 35.1425 347.436 35.1498L378.91 48.5613C378.936 48.5752 378.962 48.5879 378.989 48.5994C379.201 48.6897 379.443 48.7065 379.673 48.6359ZM379.309 45.3088L373.418 33.5904L385.782 30.1168L379.309 45.3088ZM362.06 28.7479L349.536 32.6138L356.005 17.4317L362.06 28.7479ZM358.125 17.1552L384.508 28.3973L366.802 33.3709L358.125 17.1552Z" fill="#404256" fill-opacity="0.1"/>
<path fill-rule="evenodd" clip-rule="evenodd" d="M434.3 136.026C434.332 136.259 434.443 136.464 434.604 136.616C434.764 136.768 434.976 136.867 435.21 136.886L440.27 137.296L441.703 150.136L420.703 130.278L433.608 130.993L434.3 136.026ZM442.941 153.742C443.227 153.76 443.519 153.655 443.731 153.43L457.984 138.357C458.162 138.169 458.253 137.929 458.257 137.689C458.264 137.374 458.123 137.086 457.894 136.897L433.017 113.371C432.802 113.143 432.485 113.019 432.151 113.065C431.893 113.1 431.673 113.231 431.519 113.416L417.372 128.375C417.176 128.546 417.046 128.793 417.031 129.074C417.014 129.38 417.136 129.661 417.343 129.856C417.359 129.871 417.375 129.886 417.392 129.9L442.25 153.406C442.27 153.428 442.29 153.45 442.312 153.47C442.479 153.628 442.701 153.728 442.941 153.742ZM443.754 150.495L442.3 137.46L455.101 138.496L443.754 150.495ZM433.33 128.975L420.242 128.251L431.581 116.26L433.33 128.975ZM433.666 116.737L454.503 136.441L436.171 134.957L433.666 116.737Z" fill="#404256" fill-opacity="0.1"/>
<path fill-rule="evenodd" clip-rule="evenodd" d="M521.2 37.042C521.344 37.2274 521.542 37.3498 521.758 37.4014C521.973 37.4528 522.205 37.4334 522.418 37.333L527.006 35.1612L534.659 45.5704L506.549 38.8517L518.087 33.0267L521.2 37.042ZM537.532 48.0759C537.789 47.9487 537.99 47.7124 538.062 47.4116L542.884 27.2351C542.944 26.9829 542.903 26.73 542.787 26.5194C542.635 26.2428 542.369 26.0638 542.077 26.0141L508.775 18.0548C508.476 17.964 508.138 18.0148 507.872 18.2214C507.667 18.3809 507.54 18.6042 507.499 18.8414L502.713 38.8663C502.629 39.1124 502.64 39.3912 502.766 39.6421C502.905 39.9156 503.151 40.0979 503.427 40.1639C503.448 40.169 503.47 40.1734 503.492 40.1771L536.767 48.1302C536.795 48.1395 536.823 48.1476 536.852 48.1544C537.076 48.2079 537.318 48.1839 537.532 48.0759ZM536.616 44.8567L528.847 34.2898L540.455 28.7954L536.616 44.8567ZM516.839 31.4172L505.138 37.3253L508.974 21.2744L516.839 31.4172ZM511.018 20.6469L538.911 27.3135L522.287 35.1811L511.018 20.6469Z" fill="#404256" fill-opacity="0.1"/>
<path fill-rule="evenodd" clip-rule="evenodd" d="M460.305 27.4978C460.54 27.4947 460.757 27.4103 460.928 27.2691C461.098 27.1284 461.223 26.9308 461.271 26.701L462.3 21.73L475.219 21.8875L452.928 40.2849L455.225 27.5657L460.305 27.4978ZM478.949 21.1025C479.002 20.8206 478.935 20.518 478.737 20.2799L465.533 4.28057C465.368 4.08057 465.141 3.96122 464.903 3.92733C464.591 3.88164 464.288 3.98626 464.072 4.18993L437.665 25.9845C437.412 26.169 437.249 26.469 437.254 26.8062C437.258 27.0658 437.36 27.301 437.524 27.4766L450.63 43.3558C450.776 43.5715 451.005 43.7306 451.281 43.7806C451.583 43.835 451.877 43.7481 452.096 43.5673C452.113 43.5533 452.129 43.5387 452.145 43.5235L478.532 21.7461C478.556 21.7295 478.579 21.7118 478.602 21.6931C478.78 21.5465 478.906 21.3389 478.949 21.1025ZM475.827 19.8955L462.713 19.7356L465.316 7.15929L475.827 19.8955ZM453.188 27.5929L450.86 40.4923L440.355 27.7645L453.188 27.5929ZM441.085 25.7546L463.203 7.49988L459.474 25.5092L441.085 25.7546Z" fill="#404256" fill-opacity="0.1"/>
<path fill-rule="evenodd" clip-rule="evenodd" d="M373.315 107.466C373.516 107.42 373.687 107.307 373.808 107.154C373.928 107.002 373.999 106.809 373.997 106.603L373.959 102.14L385.091 99.8787L369.351 119.82L368.965 108.466L373.315 107.466ZM388.112 98.7938C388.216 98.457 388.109 98.0762 387.816 97.8454L373.501 86.5462C373.338 86.4169 373.142 86.3553 372.948 86.3573L372.946 86.3573C372.644 86.3598 372.379 86.5143 372.223 86.7477L353.587 110.357C353.398 110.563 353.311 110.855 353.378 111.148C353.43 111.372 353.563 111.556 353.74 111.676L367.961 122.902C368.125 123.052 368.345 123.14 368.584 123.132C368.853 123.123 369.09 122.994 369.244 122.798C369.261 122.776 369.277 122.754 369.292 122.731L387.922 99.13C387.935 99.1153 387.948 99.1001 387.96 99.0845C388.028 98.9984 388.08 98.8997 388.112 98.7938ZM385.243 98.0543L373.944 100.349L373.848 89.0595L385.243 98.0543ZM367.22 108.867L367.612 120.387L356.221 111.396L367.22 108.867ZM356.476 109.533L372.096 89.7457L372.232 105.912L356.476 109.533Z" fill="#404256" fill-opacity="0.1"/>
<path fill-rule="evenodd" clip-rule="evenodd" d="M482.477 78.5279C482.629 78.6678 482.818 78.7451 483.013 78.7585C483.207 78.7718 483.406 78.7212 483.575 78.6033L487.237 76.0538L495.386 83.9667L470.038 82.2265L479.195 75.4995L482.477 78.5279ZM498.219 85.7362C498.435 85.5897 498.583 85.3489 498.602 85.0685L499.851 66.8746C499.858 66.7714 499.847 66.6712 499.821 66.5769C499.795 66.4841 499.753 66.394 499.695 66.3104C499.523 66.0636 499.248 65.9318 498.969 65.933L468.952 63.8723C468.677 63.8349 468.389 63.9277 468.186 64.1472C468.036 64.3111 467.959 64.5169 467.954 64.7234L466.711 82.8315C466.684 83.0465 466.736 83.2717 466.875 83.4602C467.034 83.6773 467.274 83.7995 467.523 83.8166C467.535 83.8174 467.547 83.818 467.559 83.8184L497.589 85.88C497.613 85.8837 497.637 85.8863 497.661 85.888C497.855 85.9013 498.053 85.8504 498.219 85.7362ZM496.978 83.0629L488.707 75.0308L497.972 68.5806L496.978 83.0629ZM477.879 74.2854L468.591 81.1091L469.585 66.6332L477.879 74.2854ZM471.267 65.7933L496.418 67.52L483.149 76.7565L471.267 65.7933Z" fill="#404256" fill-opacity="0.1"/>
<path fill-rule="evenodd" clip-rule="evenodd" d="M25.8908 120.854C26.149 120.835 26.3822 120.728 26.5613 120.561C26.7396 120.395 26.8638 120.169 26.9009 119.912L27.7026 114.37L41.9408 113.682L18.6236 135.424L20.3046 121.267L25.8908 120.854ZM45.9911 112.606C46.0441 112.281 45.9512 111.936 45.7087 111.677L30.1005 94.9379C29.8886 94.7106 29.6029 94.593 29.3148 94.5874C28.9909 94.5796 28.6894 94.7146 28.4796 94.941L0.863435 120.692C0.59351 120.912 0.431679 121.256 0.459404 121.629C0.481351 121.92 0.613542 122.176 0.812003 122.359L16.308 138.977C16.4826 139.198 16.7412 139.352 17.0428 139.388C17.3786 139.427 17.6964 139.312 17.9255 139.099C17.9514 139.074 17.9761 139.049 17.9996 139.022L45.5799 113.305C45.6054 113.285 45.6299 113.264 45.6534 113.242C45.8303 113.077 45.9525 112.854 45.9911 112.606ZM42.4785 111.447L28.0242 112.146L30.0527 98.1216L42.4785 111.447ZM18.0638 121.433L16.3589 135.797L3.93962 122.478L18.0638 121.433ZM4.60899 120.216L27.7482 98.6394L24.8431 118.72L4.60899 120.216Z" fill="#404256" fill-opacity="0.1"/>
<path fill-rule="evenodd" clip-rule="evenodd" d="M516.686 127.19C516.75 127.441 516.896 127.652 517.092 127.799C517.287 127.946 517.531 128.029 517.79 128.021L523.387 127.846L526.543 141.747L501.074 122.57L515.307 121.761L516.686 127.19ZM528.307 145.548C528.636 145.544 528.96 145.392 529.173 145.108L542.94 126.825C543.127 126.577 543.193 126.275 543.148 125.99C543.1 125.67 542.914 125.396 542.655 125.229L512.49 102.516C512.226 102.289 511.86 102.189 511.497 102.282C511.214 102.354 510.986 102.529 510.84 102.756L497.172 120.908C496.985 121.118 496.879 121.4 496.896 121.703C496.915 122.041 497.084 122.333 497.334 122.522C497.362 122.543 497.392 122.563 497.422 122.582L527.547 145.265C527.571 145.286 527.596 145.307 527.622 145.326C527.815 145.472 528.056 145.553 528.307 145.548ZM528.837 141.887L525.633 127.775L539.796 127.332L528.837 141.887ZM514.754 119.583L500.313 120.404L511.267 105.857L514.754 119.583ZM513.611 106.122L538.885 125.153L518.606 125.787L513.611 106.122Z" fill="#404256" fill-opacity="0.1"/>
</svg>
